<?xml version="1.0" standalone="no"?>
<!DOCTYPE svg PUBLIC "-//W3C//DTD SVG 20010904//EN"
 "http://www.w3.org/TR/2001/REC-SVG-20010904/DTD/svg10.dtd">
<svg version="1.0" xmlns="http://www.w3.org/2000/svg"
 width="260.000000pt" height="260.000000pt" viewBox="0 0 260.000000 260.000000"
 preserveAspectRatio="xMidYMid meet">
<metadata>
Created by potrace 1.14, written by Peter Selinger 2001-2017
</metadata>
<g transform="translate(0.000000,260.000000) scale(0.100000,-0.100000)"
fill="#000000" stroke="none">
<path d="M1093 2441 c-146 -275 -159 -311 -148 -423 8 -75 16 -92 76 -155 25
-26 59 -68 75 -93 41 -63 46 -65 65 -16 20 54 78 142 119 181 l31 30 27 -31
c15 -17 39 -47 54 -65 l26 -34 12 30 c14 33 18 223 7 294 -4 24 -18 62 -31 85
-39 65 -237 296 -254 296 -4 0 -31 -44 -59 -99z"/>
<path d="M1785 2283 c-49 -19 -112 -42 -140 -50 -68 -21 -115 -46 -144 -77
-23 -24 -25 -34 -27 -144 -1 -64 -7 -137 -14 -162 -9 -35 -9 -52 1 -82 13 -41
20 -46 38 -24 15 18 90 49 178 74 88 25 96 19 87 -63 -8 -72 0 -68 65 28 71
106 73 117 65 334 -3 103 -9 191 -13 195 -3 4 -46 -9 -96 -29z"/>
<path d="M360 2173 c0 -16 73 -271 91 -319 27 -70 65 -112 186 -209 133 -107
198 -141 250 -128 29 7 37 14 36 29 -2 10 -6 63 -9 117 -8 114 -14 109 94 84
34 -8 64 -11 67 -8 11 20 -240 286 -308 325 -23 14 -117 46 -207 71 -164 45
-200 51 -200 38z"/>
<path d="M1261 1867 c-52 -69 -82 -136 -75 -171 2 -15 23 -52 44 -81 45 -61
65 -101 80 -162 6 -24 15 -43 20 -43 4 0 15 -3 24 -6 35 -13 94 170 90 278 -2
31 -8 67 -15 79 -19 37 -100 143 -114 152 -10 5 -26 -9 -54 -46z"/>
<path d="M1933 1829 c-27 -9 -53 -26 -62 -40 -17 -27 -112 -151 -122 -159 -14
-12 -30 -53 -22 -59 4 -4 35 -18 68 -31 94 -37 160 -74 163 -90 1 -8 -29 -47
-66 -87 -110 -116 -108 -107 -27 -99 81 7 112 14 218 51 96 33 119 53 212 174
40 53 83 107 95 121 12 14 30 42 41 62 l19 37 -58 26 c-141 66 -308 116 -375
112 -20 -1 -58 -9 -84 -18z"/>
<path d="M1670 1786 c-71 -20 -146 -56 -169 -80 -12 -13 -23 -41 -26 -71 -5
-44 -18 -96 -41 -174 -7 -23 -6 -23 41 9 27 18 82 47 124 64 81 34 108 63 118
128 3 18 8 53 13 78 12 65 11 66 -60 46z"/>
<path d="M945 1720 c-9 -14 4 -159 16 -181 5 -10 31 -25 58 -33 60 -18 99 -38
173 -88 48 -32 61 -37 78 -28 24 13 24 9 5 75 -18 60 -77 156 -121 196 -18 17
-55 32 -99 43 -38 9 -77 19 -87 22 -9 3 -19 0 -23 -6z"/>
<path d="M485 1613 c-37 -16 -302 -189 -334 -219 -12 -11 1 -27 83 -105 132
-125 171 -155 239 -180 77 -29 139 -23 206 21 28 17 83 44 121 59 79 31 90 39
71 50 -40 25 -171 157 -171 172 0 12 16 27 43 40 73 37 73 39 16 71 -29 15
-75 46 -104 68 -59 45 -101 51 -170 23z"/>
<path d="M1615 1509 c-58 -20 -166 -89 -195 -124 -12 -15 -12 -19 1 -29 9 -6
23 -25 32 -42 9 -17 24 -35 34 -39 29 -13 174 -14 230 -3 46 9 60 19 127 88
42 43 76 81 76 84 0 4 -38 25 -84 47 -97 45 -133 48 -221 18z"/>
<path d="M820 1455 c-41 -18 -76 -39 -78 -45 -5 -13 109 -124 148 -144 52 -28
85 -28 146 -3 33 14 85 30 117 36 69 13 77 17 77 40 0 25 -140 115 -209 135
-78 23 -116 19 -201 -19z"/>
<path d="M1303 1369 c-23 -8 -43 -38 -43 -62 0 -17 25 -47 59 -70 22 -15 26
-15 51 0 15 9 34 28 43 43 16 26 15 28 -11 53 -35 33 -71 47 -99 36z"/>
<path d="M1189 1276 c-2 -2 -24 -7 -49 -11 -49 -7 -192 -75 -227 -108 -13 -11
-43 -55 -68 -96 l-44 -76 89 -3 c101 -3 128 6 218 78 48 37 136 137 149 168
11 25 -49 67 -68 48z"/>
<path d="M1990 1255 c-25 -7 -74 -16 -110 -20 -93 -9 -95 -10 -77 -39 35 -53
87 -159 87 -177 0 -19 -7 -21 -58 -22 -29 0 -27 -7 33 -98 41 -63 59 -80 100
-100 69 -32 164 -33 365 -4 78 11 105 17 113 24 11 11 -185 304 -237 355 -39
39 -142 98 -163 95 -4 -1 -28 -7 -53 -14z"/>
<path d="M1388 1210 l-37 -30 4 -82 c4 -78 22 -153 52 -210 16 -32 161 -134
173 -121 5 4 16 46 26 93 20 101 14 131 -43 229 -34 58 -115 151 -132 151 -3
0 -23 -14 -43 -30z"/>
<path d="M1514 1210 c13 -14 45 -58 71 -98 28 -45 57 -77 73 -83 30 -12 164
-10 184 2 10 7 6 23 -22 75 -19 36 -46 79 -61 97 l-26 31 -121 0 -121 1 23
-25z"/>
<path d="M1253 1168 c-28 -38 -62 -74 -140 -147 -27 -25 -30 -66 -9 -116 8
-19 13 -35 11 -35 -1 0 5 -21 15 -47 11 -29 24 -48 33 -47 8 1 46 22 84 46 84
55 113 102 94 154 -7 18 -13 73 -15 123 -5 127 -20 142 -73 69z"/>
<path d="M810 1162 c-112 -46 -290 -165 -325 -218 -17 -27 -135 -359 -135
-382 0 -21 303 -7 402 19 73 19 200 121 295 236 l35 43 -12 52 c-17 70 -15 69
-55 52 -41 -17 -240 -20 -250 -4 -7 11 46 113 97 188 16 23 25 42 21 41 -4 0
-37 -13 -73 -27z"/>
<path d="M1652 992 c-5 -1 -7 -16 -4 -32 6 -40 -38 -231 -55 -237 -18 -7 -168
92 -202 134 l-28 34 -27 -40 c-31 -44 -29 -59 15 -156 10 -22 32 -71 49 -110
48 -108 55 -113 300 -243 52 -27 109 -58 127 -68 17 -10 35 -15 39 -11 10 10
63 333 64 390 0 75 -90 260 -157 319 -16 14 -98 28 -121 20z"/>
<path d="M1007 728 c-84 -86 -89 -94 -94 -142 -6 -63 19 -183 58 -280 16 -38
34 -86 39 -107 6 -22 14 -39 19 -39 12 0 222 207 264 261 48 60 80 133 71 162
-6 22 -84 209 -89 215 -3 4 -76 -38 -97 -56 -25 -21 -46 -8 -66 38 l-17 40
-88 -92z"/>
</g>
</svg>
